<svg width="160" height="160" viewBox="0 0 160 160" fill="none" xmlns="http://www.w3.org/2000/svg">
<g clip-path="url(#clip0_742_18109)">
<circle cx="80" cy="80" r="80" fill="white"/>
<path d="M80.0015 99.9998C82.8216 85.9819 85.1049 83.5162 98.0967 80.476C85.1049 77.4357 82.8216 74.97 80.0015 60.9521C77.1814 74.97 74.898 77.4357 61.9062 80.476C74.898 83.5162 77.1814 85.9819 80.0015 99.9998Z" fill="black"/>
<g clip-path="url(#clip1_742_18109)">
<path d="M70.9163 26.5851L71.2647 28.0776L64.5685 29.6537L61.7812 17.77L63.356 17.4004L65.7948 27.7846L70.9163 26.5781V26.5851Z" fill="black"/>
<path d="M79.5654 25.8941L79.6769 27.4214L72.4162 27.9514L71.5312 15.7818L78.7013 15.2588L78.8128 16.7861L73.2524 17.1906L73.5241 20.9286L78.6526 20.552L78.7641 22.0654L73.6426 22.442L73.9213 26.3056L79.5654 25.8941Z" fill="black"/>
<path d="M89.9229 17.5744L86.3343 17.2466L85.3588 27.875L83.7631 27.7285L84.7387 17.1002L81.1641 16.7724L81.3034 15.2451L90.0692 16.0541L89.9298 17.5814L89.9229 17.5744Z" fill="black"/>
<path d="M92.8064 21.02L91.5312 20.7411L93.113 16.752L94.8132 17.1216L92.8064 21.02Z" fill="black"/>
<path d="M93.8663 26.4527L95.4481 26.1528C95.4202 27.5615 96.117 28.7332 97.7963 29.319C99.4268 29.8908 100.486 29.4306 100.848 28.3914C101.259 27.2059 100.381 26.4527 98.8694 25.3368C97.2319 24.1024 95.6571 22.9029 96.4027 20.7619C97.1274 18.6906 99.2317 18.0909 101.155 18.7674C103.043 19.4299 104.04 20.9781 104.172 22.6449L102.632 22.9378C102.562 21.808 102.033 20.734 100.639 20.2458C99.4059 19.8134 98.3189 20.1761 97.9496 21.2292C97.5733 22.2962 98.2423 22.9727 99.6777 24.0467C101.455 25.4066 103.141 26.6619 102.367 28.8796C101.664 30.9021 99.5871 31.6204 97.2319 30.7975C95.0439 30.0303 93.8663 28.3845 93.8594 26.4457L93.8663 26.4527Z" fill="black"/>
<path d="M118.72 39.5842C117.493 41.1045 115.333 41.2858 113.8 40.0514L109.703 36.7458L117.354 27.2402L121.152 30.3018C122.629 31.4944 122.901 33.5726 121.723 35.0371C121.033 35.8949 120.072 36.2576 119.096 36.1879C119.626 37.2828 119.549 38.5451 118.72 39.5772V39.5842ZM117.507 38.5381C118.197 37.6803 118.079 36.4668 117.236 35.7903L114.4 33.5029L111.919 36.5854L114.755 38.8728C115.598 39.5493 116.811 39.4098 117.507 38.5381ZM117.668 29.444L115.326 32.3522L117.863 34.3955C118.65 35.0302 119.786 34.8977 120.441 34.0817C121.089 33.2797 120.984 32.122 120.197 31.4944L117.661 29.451L117.668 29.444Z" fill="black"/>
<path d="M123.966 43.6994L122.106 41.5026L118.545 44.5224L117.5 43.288L126.802 35.4004L129.952 39.1245C131.304 40.7215 131.116 43.1206 129.52 44.4666C128.3 45.5057 126.531 45.6033 125.193 44.8222L123.332 50.1713L122.176 48.8044L123.966 43.6925V43.6994ZM123.228 40.5611L125.332 43.0508C126.112 43.9714 127.527 44.0481 128.482 43.2391C129.436 42.4302 129.583 41.0284 128.802 40.1148L126.698 37.6251L123.228 40.5681V40.5611Z" fill="black"/>
<path d="M134.993 46.112L124.73 52.7024L123.852 51.3355L134.115 44.7451L134.993 46.112Z" fill="black"/>
<path d="M140.912 57.828L129.812 62.8772L129.268 61.6846L134.961 52.2L126.669 55.973L126 54.4945L137.093 49.4453L137.637 50.6379L131.958 60.1155L140.236 56.3496L140.905 57.828H140.912Z" fill="black"/>
<path d="M138.058 75.2356C135.02 75.8423 132.177 74.064 131.452 70.4584C130.714 66.7622 132.978 63.589 136.393 62.9056C139.828 62.2221 143.124 64.3004 143.849 67.9408C144.294 70.1795 143.507 72.3693 141.995 73.7013L140.922 72.4948C142.065 71.5533 142.65 69.9284 142.309 68.2337C141.758 65.465 139.326 63.9587 136.706 64.4817C134.107 64.9978 132.435 67.3062 133.006 70.1655C133.501 72.6482 135.159 73.8408 137.02 73.792L136.142 69.3984L137.577 69.1124L138.769 75.0961L138.051 75.2426L138.058 75.2356Z" fill="black"/>
<path d="M136.575 91.4922L131.719 90.6414L131.997 89.0443L136.875 89.8952L144.756 86.9033L144.442 88.6887L138.241 90.9691L143.3 95.2163L142.986 97.0016L136.575 91.4922Z" fill="black"/>
<path d="M136.94 96.5552C140.208 97.8524 141.797 101.465 140.494 104.75C139.191 108.041 135.561 109.597 132.286 108.306C129.032 107.016 127.436 103.383 128.732 100.091C130.028 96.7993 133.679 95.265 136.933 96.5552H136.94ZM132.885 106.8C135.379 107.79 138.055 106.654 139.038 104.178C140.02 101.695 138.842 99.038 136.348 98.0477C133.867 97.0643 131.192 98.2011 130.209 100.677C129.227 103.16 130.404 105.817 132.885 106.8Z" fill="black"/>
<path d="M129.297 109.255L135.966 113.85L135.046 115.182L128.433 110.628C127.04 109.666 125.549 109.868 124.448 111.479C123.34 113.09 123.688 114.555 125.075 115.51L131.687 120.071L130.782 121.389L124.113 116.793C121.932 115.294 121.633 112.776 123.145 110.58C124.657 108.383 127.116 107.755 129.297 109.255Z" fill="black"/>
<path d="M119.501 122.386L121.564 120.378L118.31 117.03L119.473 115.9L127.974 124.653L124.476 128.056C122.978 129.514 120.574 129.493 119.118 127.993C118.003 126.843 117.78 125.085 118.463 123.69L113 122.191L114.289 120.943L119.501 122.386ZM122.581 121.431L120.247 123.704C119.383 124.541 119.404 125.964 120.275 126.863C121.146 127.763 122.553 127.805 123.417 126.968L125.751 124.695L122.581 121.431Z" fill="black"/>
<path d="M109.181 138.852L103.516 128.042L104.951 127.289L110.616 138.099L109.181 138.852Z" fill="black"/>
<path d="M90.8594 132.84L92.3784 132.338L95.3677 141.397L97.0748 133.837L97.2769 133.775L103.144 138.817L100.162 129.779L101.702 129.27L105.527 140.86L103.792 141.432L98.0782 136.522L96.4268 143.866L94.6918 144.438L90.8663 132.847L90.8594 132.84Z" fill="black"/>
<path d="M82.1333 136.46L87.5962 135.951L88.3279 133.133L90.042 132.973L86.6486 145.547L84.8299 145.714L79.1719 133.984L80.886 133.823L82.1263 136.46H82.1333ZM82.8301 137.917L85.5755 143.699L87.1851 137.506L82.8301 137.91V137.917Z" fill="black"/>
<path d="M66.4343 137.869C66.8036 134.786 69.3818 132.638 73.033 133.078C76.7679 133.531 79.0743 136.669 78.6632 140.135C78.2451 143.615 75.2419 146.098 71.5558 145.652C69.2912 145.38 67.4586 143.943 66.6643 142.095L68.1485 141.446C68.685 142.827 70.0507 143.887 71.7579 144.096C74.559 144.431 76.747 142.59 77.0675 139.94C77.3811 137.311 75.7157 135.002 72.824 134.654C70.3155 134.354 68.6641 135.56 68.1276 137.339L72.5732 137.876L72.399 139.326L66.3438 138.594L66.4343 137.869Z" fill="black"/>
<path d="M60.75 143.134L64.1295 131.411L65.6834 131.857L62.3039 143.581L60.75 143.134Z" fill="black"/>
<path d="M48.5625 138.224L53.5934 127.107L54.7849 127.644L56.736 138.538L60.4918 130.232L61.969 130.901L56.9381 142.018L55.7465 141.481L53.7885 130.601L50.0397 138.886L48.5625 138.217V138.224Z" fill="black"/>
<path d="M44.5417 124.102L48.9733 127.345L51.3912 125.72L52.7848 126.738L41.9147 133.907L40.4375 132.826L43.9633 120.287L45.3569 121.305L44.5417 124.102ZM44.0957 125.657L42.3189 131.808L47.6215 128.237L44.0887 125.657H44.0957Z" fill="black"/>
<path d="M30.9204 121.94L33.4359 124.527L41.0728 117.086L42.1877 118.237L34.5508 125.678L37.0523 128.251L35.9513 129.318L29.8125 123.007L30.9134 121.933L30.9204 121.94Z" fill="black"/>
<path d="M27.2188 119.507L36.9252 112.114L37.9077 113.404L28.2012 120.797L27.2188 119.507Z" fill="black"/>
<path d="M30.3602 113.948C27.2524 115.6 23.4758 114.471 21.8174 111.346C20.159 108.222 21.3226 104.442 24.4304 102.789C27.5242 101.143 31.3218 102.28 32.9801 105.404C34.6385 108.529 33.447 112.302 30.3532 113.948H30.3602ZM25.1899 104.219C22.8208 105.481 21.9428 108.257 23.197 110.614C24.4443 112.971 27.2315 113.801 29.6076 112.539C31.9628 111.291 32.8338 108.515 31.5865 106.158C30.3393 103.8 27.5451 102.978 25.1969 104.226L25.1899 104.219Z" fill="black"/>
<path d="M15.3906 92.8378L27.1805 89.7344L27.515 90.9967L20.3031 99.3864L29.1107 97.064L29.5218 98.6332L17.7319 101.737L17.3974 100.474L24.5954 92.0916L15.8017 94.4069L15.3906 92.8378Z" fill="black"/>
<path d="M16.5668 70.702L16.2532 74.2936L26.8725 75.2141L26.7331 76.8112L16.1138 75.8906L15.8072 79.4683L14.2812 79.3358L15.0408 70.5625L16.5668 70.695V70.702Z" fill="black"/>
<path d="M21.1017 70.1585C17.7222 69.1752 15.806 65.73 16.7885 62.3337C17.771 58.9374 21.248 57.0404 24.6205 58.0238C27.9791 59.0001 29.9162 62.4662 28.9268 65.8625C27.9373 69.2588 24.4603 71.1348 21.0947 70.1585H21.1017ZM24.1746 59.579C21.5964 58.8327 19.0391 60.2066 18.2936 62.773C17.548 65.3395 18.9695 67.871 21.5476 68.6172C24.1049 69.3635 26.6622 67.9826 27.4077 65.4232C28.1533 62.8637 26.7318 60.3252 24.1676 59.579H24.1746Z" fill="black"/>
<path d="M35.5481 48.2249L36.8442 49.0409L33.172 54.8641L22.8594 48.3504L23.7234 46.9766L32.74 52.6673L35.5481 48.211V48.2249Z" fill="black"/>
<path d="M29.2361 39.1865L38.7474 46.823L37.7301 48.0853L28.2188 40.4488L29.2361 39.1865Z" fill="black"/>
<path d="M33.8548 36.2999L36.628 39.1244L40.3141 35.4909L41.3872 36.5858L37.7011 40.2193L41.3315 43.9085L40.1748 45.0453L31.625 36.3417L36.628 31.4111L37.7011 32.506L33.8478 36.2999H33.8548Z" fill="black"/>
<path d="M51.4333 33.7261L52.3182 34.9815L46.3745 39.1868L39.3438 29.2209L45.2178 25.0645L46.1027 26.3198L41.5526 29.5348L43.7127 32.5964L47.9074 29.6324L48.7785 30.8738L44.5837 33.8377L46.8135 36.9969L51.4402 33.7261H51.4333Z" fill="black"/>
</g>
</g>
<defs>
<clipPath id="clip0_742_18109">
<rect width="160" height="160" fill="white"/>
</clipPath>
<clipPath id="clip1_742_18109">
<rect width="130.476" height="130.476" fill="white" transform="translate(14.2812 15.2383)"/>
</clipPath>
</defs>
</svg>
