<svg width="57" height="359" viewBox="0 0 57 359" fill="none" xmlns="http://www.w3.org/2000/svg">
<path d="M26.0278 3.10401C26.0278 1.23201 27.2758 1.52588e-05 29.3238 1.52588e-05L34.2358 1.52588e-05V1.39201L29.4038 1.39201C28.0918 1.39201 27.3558 2.14401 27.3558 3.37601C27.3558 4.65601 28.1078 5.69601 29.9958 5.69601H34.2358V7.08801L26.2358 7.08801V5.69601H27.3878C26.4438 5.10401 26.0278 4.22401 26.0278 3.10401Z" fill="#1B1C15"/>
<path d="M26.2358 9.97651V8.5205L34.2358 11.0005V12.4245L28.3158 14.2965L34.2358 16.1685V17.5925L26.2358 20.0725V18.6165L32.3158 16.8565L26.2358 14.9685V13.6245L32.3318 11.7365L26.2358 9.97651Z" fill="#1B1C15"/>
<path d="M34.4438 24.953C34.4438 27.289 32.6038 29.161 30.2358 29.161C27.8678 29.161 26.0278 27.289 26.0278 24.953C26.0278 22.617 27.8678 20.729 30.2358 20.729C32.6038 20.729 34.4438 22.617 34.4438 24.953ZM33.0838 24.953C33.0838 23.353 31.8518 22.121 30.2358 22.121C28.6198 22.121 27.3878 23.353 27.3878 24.953C27.3878 26.537 28.6198 27.769 30.2358 27.769C31.8518 27.769 33.0838 26.537 33.0838 24.953Z" fill="#1B1C15"/>
<path d="M23.0359 32.214V30.822H34.2359V32.214H32.8599C33.8359 32.854 34.4439 33.878 34.4439 35.238C34.4439 37.462 32.6039 39.286 30.2359 39.286C27.8679 39.286 26.0279 37.462 26.0279 35.238C26.0279 33.878 26.6359 32.854 27.6119 32.214H23.0359ZM33.0999 35.062C33.0999 33.446 31.8679 32.214 30.2359 32.214C28.6039 32.214 27.3719 33.446 27.3719 35.062C27.3719 36.662 28.6039 37.894 30.2359 37.894C31.8679 37.894 33.0999 36.662 33.0999 35.062Z" fill="#1B1C15"/>
<path d="M34.2359 46.3536H22.5559V44.9616H34.2359V46.3536Z" fill="#1B1C15"/>
<path d="M34.2359 49.8693H22.5559V48.4773H34.2359V49.8693Z" fill="#1B1C15"/>
<path d="M34.4438 55.7343C34.4438 58.0703 32.6038 59.9423 30.2358 59.9423C27.8678 59.9423 26.0278 58.0703 26.0278 55.7343C26.0278 53.3983 27.8678 51.5103 30.2358 51.5103C32.6038 51.5103 34.4438 53.3983 34.4438 55.7343ZM33.0838 55.7343C33.0838 54.1343 31.8518 52.9023 30.2358 52.9023C28.6198 52.9023 27.3878 54.1343 27.3878 55.7343C27.3878 57.3183 28.6198 58.5503 30.2358 58.5503C31.8518 58.5503 33.0838 57.3183 33.0838 55.7343Z" fill="#1B1C15"/>
<path d="M27.5798 62.9148C26.4598 62.4028 26.0918 61.4268 26.0918 60.4188H27.5478C27.4998 61.6188 28.1078 62.9148 29.9958 62.9148H34.2358V64.3068H26.2358V62.9148H27.5798Z" fill="#1B1C15"/>
<path d="M34.4438 69.2968C34.4438 71.7128 32.6038 73.5048 30.2358 73.5048C27.8678 73.5048 26.0278 71.7128 26.0278 69.2968C26.0278 67.7128 26.8598 66.3688 28.1238 65.7608L28.7958 66.9288C27.9478 67.3288 27.3878 68.2248 27.3878 69.2968C27.3878 70.8968 28.6198 72.1128 30.2358 72.1128C31.8358 72.1128 33.0678 70.8968 33.0678 69.2968C33.0678 68.2088 32.5078 67.3288 31.6758 66.8808L32.3638 65.6968C33.6118 66.3688 34.4438 67.7288 34.4438 69.2968Z" fill="#1B1C15"/>
<path d="M34.4439 78.7342C34.4439 80.8622 33.3719 82.3822 31.6919 82.9742L30.9559 81.6942C32.1879 81.2942 32.9879 80.3342 32.9879 78.7022C32.9879 77.1182 32.2679 76.3342 31.2599 76.3342C30.1079 76.3342 29.7239 77.3262 29.2119 78.9742C28.6359 80.7662 28.0759 82.4942 25.9959 82.4942C23.9799 82.4942 22.8279 80.8462 22.8279 78.9742C22.8279 77.1342 23.8679 75.8062 25.2759 75.1822L25.9959 76.4302C25.0359 76.8302 24.2679 77.6142 24.2679 78.9742C24.2679 80.1742 24.9079 81.0062 25.9319 81.0062C26.9719 81.0062 27.3559 80.2222 27.8519 78.6542C28.4919 76.7022 29.0679 74.8622 31.2279 74.8622C33.1959 74.8622 34.4439 76.4462 34.4439 78.7342Z" fill="#1B1C15"/>
<g clip-path="url(#clip0_742_18582)">
<path fill-rule="evenodd" clip-rule="evenodd" d="M27.5293 102.974H28.5293V353.962C32.0561 330.486 48.2725 323.459 56.5 322.975L56.5587 323.973C48.2874 324.46 31.0078 331.982 29.028 358.511L28.2794 358.455L27.5307 358.511C25.5509 331.982 8.27135 324.46 0 323.973L0.058722 322.975C7.94662 323.439 23.1775 329.917 27.5293 351.138V102.974Z" fill="#1B1C15"/>
</g>
<defs>
<clipPath id="clip0_742_18582">
<rect width="57" height="256" fill="white" transform="translate(0 102.974)"/>
</clipPath>
</defs>
</svg>
