<svg width="132" height="131" viewBox="0 0 132 131" fill="none" xmlns="http://www.w3.org/2000/svg">
<path d="M131.025 59.0713C128.284 59.9183 125.533 60.6617 122.841 61.6433C116.247 64.0481 109.645 66.3839 103.187 69.0889C88.4635 75.2477 79.5655 86.3139 76.8098 101.975C75.1698 111.3 74.239 120.725 72.9901 130.114C72.95 130.398 72.9063 130.647 72.4898 131.005C71.6428 128.264 70.8994 125.513 69.8833 122.825C67.3875 116.03 65.0263 109.187 62.1995 102.567C56.137 88.427 45.3726 79.7418 30.2647 76.928C21.0359 75.208 11.6798 74.27 2.35998 73.0138C1.75805 72.9373 1.11796 72.8299 0.374193 72.7334C8.45983 69.8923 16.3945 67.2767 24.1855 64.2919C31.1691 61.6016 37.7473 58.0456 43.2001 52.7563C50.2971 45.827 53.6301 36.9876 55.2555 27.5242C56.7099 19.0919 57.4859 10.5213 58.5838 2.02167C58.6639 1.4543 58.7476 0.921488 58.8386 0.457777C61.8088 8.77439 64.7063 17.0637 67.8038 25.2621C68.9635 28.3193 70.527 31.2292 72.1214 34.1009C78.3044 45.3986 88.1143 51.9832 100.489 54.3856C110.262 56.293 120.247 57.2347 130.138 58.6056C130.421 58.6457 130.671 58.6894 130.954 58.7294C130.969 58.8676 130.98 58.9713 131.029 59.1059L131.025 59.0713Z" fill="#AA94E8"/>
</svg>
