<svg width="145" height="145" viewBox="0 0 145 145" fill="none" xmlns="http://www.w3.org/2000/svg">
<path d="M138.025 65.9693C135.284 66.8163 132.533 67.5596 129.841 68.5412C123.247 70.9461 116.645 73.2819 110.187 75.9868C95.4635 82.1457 86.5655 93.2119 83.8098 108.873C82.1698 118.198 81.239 127.623 79.9901 137.012C79.95 137.296 79.9063 137.545 79.4898 137.903C78.6428 135.162 77.8994 132.411 76.8833 129.723C74.3875 122.928 72.0263 116.085 69.1995 109.465C63.137 95.325 52.3726 86.6398 37.2647 83.826C28.0359 82.106 18.6798 81.168 9.35998 79.9117C8.75805 79.8353 8.11796 79.7279 7.37419 79.6314C15.4598 76.7903 23.3945 74.1746 31.1855 71.1898C38.1691 68.4995 44.7473 64.9435 50.2001 59.6543C57.2971 52.7249 60.6301 43.8856 62.2555 34.4222C63.7099 25.9899 64.4859 17.4193 65.5838 8.91962C65.6639 8.35225 65.7476 7.81944 65.8386 7.35573C68.8088 15.6723 71.7063 23.9617 74.8038 32.1601C75.9635 35.2172 77.527 38.1271 79.1214 40.9988C85.3044 52.2965 95.1143 58.8812 107.489 61.2836C117.262 63.1909 127.247 64.1327 137.138 65.5036C137.421 65.5436 137.671 65.5873 137.954 65.6274C137.969 65.7656 137.98 65.8692 138.029 66.0038L138.025 65.9693Z" fill="#2C2C2C"/>
</svg>
